<svg xmlns="http://www.w3.org/2000/svg" width="1600" height="1130" viewBox="0 0 1600 1130" role="img" aria-labelledby="title desc">
  <title id="title">System Architecture: Runtime Containers &amp; Data Flow</title>
  <desc id="desc">Definitive component topology showing the strict separation of synchronous API requests, offline-first clients, and asynchronous background processing.</desc>

  <defs>
    <!-- Backgrounds -->
    <linearGradient id="bg" x1="0" y1="0" x2="1" y2="1">
      <stop offset="0%" stop-color="#0B1220"/>
      <stop offset="100%" stop-color="#111827"/>
    </linearGradient>
    <linearGradient id="panelGrad" x1="0" y1="0" x2="0" y2="1">
      <stop offset="0%" stop-color="#1E293B"/>
      <stop offset="100%" stop-color="#0F172A"/>
    </linearGradient>

    <!-- Accent Gradients -->
    <linearGradient id="blueAccent" x1="0" y1="0" x2="0" y2="1">
      <stop offset="0%" stop-color="#3B82F6"/>
      <stop offset="100%" stop-color="#1D4ED8"/>
    </linearGradient>
    <linearGradient id="tealAccent" x1="0" y1="0" x2="0" y2="1">
      <stop offset="0%" stop-color="#2DD4BF"/>
      <stop offset="100%" stop-color="#0F766E"/>
    </linearGradient>
    <linearGradient id="orangeAccent" x1="0" y1="0" x2="0" y2="1">
      <stop offset="0%" stop-color="#F59E0B"/>
      <stop offset="100%" stop-color="#B45309"/>
    </linearGradient>
    <linearGradient id="purpleAccent" x1="0" y1="0" x2="0" y2="1">
      <stop offset="0%" stop-color="#8B5CF6"/>
      <stop offset="100%" stop-color="#5B21B6"/>
    </linearGradient>
    <linearGradient id="redAccent" x1="0" y1="0" x2="0" y2="1">
      <stop offset="0%" stop-color="#EF4444"/>
      <stop offset="100%" stop-color="#991B1B"/>
    </linearGradient>
    <linearGradient id="slateAccent" x1="0" y1="0" x2="0" y2="1">
      <stop offset="0%" stop-color="#64748B"/>
      <stop offset="100%" stop-color="#334155"/>
    </linearGradient>
    <linearGradient id="firmwareGrad" x1="0" y1="0" x2="0" y2="1">
      <stop offset="0%" stop-color="rgba(13, 148, 136, 0.12)"/>
      <stop offset="100%" stop-color="rgba(4, 47, 46, 0.4)"/>
    </linearGradient>
    <linearGradient id="mobileGrad" x1="0" y1="0" x2="0" y2="1">
      <stop offset="0%" stop-color="rgba(37, 99, 235, 0.12)"/>
      <stop offset="100%" stop-color="rgba(23, 37, 84, 0.4)"/>
    </linearGradient>
    <linearGradient id="healthGrad" x1="0" y1="0" x2="0" y2="1">
      <stop offset="0%" stop-color="rgba(190, 24, 93, 0.12)"/>
      <stop offset="100%" stop-color="rgba(69, 10, 40, 0.4)"/>
    </linearGradient>
    <linearGradient id="webServiceGrad" x1="0" y1="0" x2="0" y2="1">
      <stop offset="0%" stop-color="rgba(15, 118, 110, 0.12)"/>
      <stop offset="100%" stop-color="rgba(4, 47, 46, 0.4)"/>
    </linearGradient>
    <linearGradient id="workerServiceGrad" x1="0" y1="0" x2="0" y2="1">
      <stop offset="0%" stop-color="rgba(217, 119, 6, 0.12)"/>
      <stop offset="100%" stop-color="rgba(69, 26, 3, 0.4)"/>
    </linearGradient>
    <linearGradient id="postgresGrad" x1="0" y1="0" x2="0" y2="1">
      <stop offset="0%" stop-color="rgba(99, 102, 241, 0.12)"/>
      <stop offset="100%" stop-color="rgba(49, 46, 129, 0.4)"/>
    </linearGradient>
    <linearGradient id="redisGrad" x1="0" y1="0" x2="0" y2="1">
      <stop offset="0%" stop-color="rgba(239, 68, 68, 0.12)"/>
      <stop offset="100%" stop-color="rgba(69, 10, 10, 0.4)"/>
    </linearGradient>
    <linearGradient id="cloudGrad" x1="0" y1="0" x2="0" y2="1">
      <stop offset="0%" stop-color="rgba(71, 85, 105, 0.12)"/>
      <stop offset="100%" stop-color="rgba(15, 23, 42, 0.5)"/>
    </linearGradient>
    <linearGradient id="sharedGrad" x1="0" y1="0" x2="1" y2="0">
      <stop offset="0%" stop-color="rgba(71, 85, 105, 0.3)"/>
      <stop offset="100%" stop-color="rgba(15, 23, 42, 0.6)"/>
    </linearGradient>

    <!-- Markers -->
    <marker id="arrowData" markerWidth="12" markerHeight="12" refX="10" refY="6" orient="auto" markerUnits="userSpaceOnUse">
      <path d="M0,1 L10,6 L0,11 Z" fill="#38BDF8"/>
    </marker>
    <marker id="arrowAsync" markerWidth="12" markerHeight="12" refX="10" refY="6" orient="auto" markerUnits="userSpaceOnUse">
      <path d="M0,1 L10,6 L0,11 Z" fill="#F59E0B"/>
    </marker>
    <marker id="arrowWS" markerWidth="12" markerHeight="12" refX="10" refY="6" orient="auto" markerUnits="userSpaceOnUse">
      <path d="M0,1 L10,6 L0,11 Z" fill="#A78BFA"/>
    </marker>
    <marker id="arrowGeneric" markerWidth="12" markerHeight="12" refX="10" refY="6" orient="auto" markerUnits="userSpaceOnUse">
      <path d="M0,1 L10,6 L0,11 Z" fill="#94A3B8"/>
    </marker>
    <marker id="arrowBLE" markerWidth="12" markerHeight="12" refX="10" refY="6" orient="auto" markerUnits="userSpaceOnUse">
      <path d="M0,1 L10,6 L0,11 Z" fill="#10B981"/>
    </marker>

    <!-- Shadows -->
    <filter id="shadow" x="-20%" y="-20%" width="140%" height="140%">
      <feDropShadow dx="0" dy="8" stdDeviation="12" flood-color="#000000" flood-opacity="0.4"/>
    </filter>
    <filter id="glowTeal" x="-20%" y="-20%" width="140%" height="140%">
      <feDropShadow dx="0" dy="0" stdDeviation="10" flood-color="#2DD4BF" flood-opacity="0.2"/>
    </filter>
    <filter id="glowOrange" x="-20%" y="-20%" width="140%" height="140%">
      <feDropShadow dx="0" dy="0" stdDeviation="10" flood-color="#F59E0B" flood-opacity="0.2"/>
    </filter>

    <style>
      .title { font: 700 32px Inter, -apple-system, sans-serif; fill: #F8FAFC; }
      .subtitle { font: 400 16px Inter, -apple-system, sans-serif; fill: #94A3B8; }
      .groupTitle { font: 700 16px Inter, -apple-system, sans-serif; fill: #CBD5E1; letter-spacing: 0.05em; text-transform: uppercase; }
      .cardTitle { font: 700 18px Inter, -apple-system, sans-serif; fill: #F8FAFC; }
      .cardMeta { font: 500 13px Inter, -apple-system, sans-serif; fill: #94A3B8; }
      .listItem { font: 400 14px Inter, -apple-system, sans-serif; fill: #E2E8F0; }
      .pillText { font: 700 12px "JetBrains Mono", monospace; fill: #FFFFFF; }
      .linkLabel { font: 600 12px Inter, -apple-system, sans-serif; fill: #E2E8F0; }
    </style>
  </defs>

  <!-- Background -->
  <rect width="1600" height="1130" rx="24" fill="url(#bg)"/>
  <rect x="24" y="24" width="1552" height="1082" rx="20" fill="none" stroke="#1E293B" stroke-width="2"/>

  <!-- Header -->
  <text x="50" y="80" class="title">System Architecture: Runtime Containers &amp; Data Flow</text>
  <text x="50" y="110" class="subtitle">Definitive component topology showing the strict separation of synchronous API requests, offline-first clients, and asynchronous background processing.</text>

  <!-- Legend -->
  <rect x="1230" y="46" width="300" height="120" rx="12" fill="rgba(15, 23, 42, 0.8)" stroke="#334155"/>
  <text x="1250" y="70" class="cardTitle" font-size="14px">Flow Legend</text>

  <path d="M 1250 90 L 1290 90" stroke="#38BDF8" stroke-width="3" fill="none" marker-end="url(#arrowData)"/>
  <text x="1305" y="94" class="cardMeta" fill="#E2E8F0">Synchronous API / Read / Write</text>

  <path d="M 1250 110 L 1290 110" stroke="#F59E0B" stroke-width="3" stroke-dasharray="6,4" fill="none" marker-end="url(#arrowAsync)"/>
  <text x="1305" y="114" class="cardMeta" fill="#E2E8F0">Asynchronous Job / Outbox Event</text>

  <path d="M 1250 130 L 1290 130" stroke="#A78BFA" stroke-width="3" stroke-dasharray="3,3" fill="none" marker-end="url(#arrowWS)"/>
  <text x="1305" y="134" class="cardMeta" fill="#E2E8F0">WebSocket / Real-time PubSub</text>

  <path d="M 1250 150 L 1290 150" stroke="#10B981" stroke-width="3" fill="none" marker-end="url(#arrowBLE)"/>
  <text x="1305" y="154" class="cardMeta" fill="#E2E8F0">BLE / Device Communication</text>

  <!-- ========================================================= -->
  <!-- COLUMN 1: CLIENTS & SOURCES  (x=50, w=350)               -->
  <!-- ========================================================= -->
  <text x="50" y="180" class="groupTitle">Client Applications &amp; Sources</text>

  <!-- Mobile App -->
  <g filter="url(#shadow)">
    <rect x="50" y="200" width="350" height="190" rx="16" fill="url(#mobileGrad)" stroke="#1E40AF" stroke-width="2"/>
    <rect x="50" y="200" width="8" height="190" rx="4" fill="url(#blueAccent)"/>

    <text x="74" y="234" class="cardTitle">Mobile App (iOS/Android)</text>
    <rect x="74" y="246" width="105" height="22" rx="6" fill="#1E3A8A" stroke="#3B82F6"/>
    <text x="127" y="261" text-anchor="middle" class="pillText">Offline-First</text>

    <circle cx="80" cy="285" r="4" fill="#38BDF8"/>
    <text x="94" y="290" class="listItem">Local SQLite DB &amp; Cursor State</text>
    <circle cx="80" cy="315" r="4" fill="#38BDF8"/>
    <text x="94" y="320" class="listItem">HealthSync &amp; Upload Engine</text>
    <circle cx="80" cy="345" r="4" fill="#38BDF8"/>
    <text x="94" y="350" class="listItem">Generic DataSyncService</text>
    <circle cx="80" cy="375" r="4" fill="#38BDF8"/>
    <text x="94" y="380" class="listItem">Real-time WebSocket Client</text>
  </g>

  <!-- HealthKit / OS -->
  <g filter="url(#shadow)">
    <rect x="50" y="420" width="350" height="70" rx="12" fill="url(#healthGrad)" stroke="#BE185D" stroke-width="2"/>
    <rect x="50" y="420" width="8" height="70" rx="4" fill="#EC4899"/>
    <text x="74" y="446" class="cardTitle" font-size="15px">Mobile OS Health Systems</text>
    <text x="74" y="468" class="cardMeta">Apple HealthKit / Health Connect</text>
  </g>

  <!-- Firmware & Low-Power Edge Device heading -->
  <text x="50" y="525" class="groupTitle">Firmware &amp; Low-Power Edge Device</text>

  <!-- Firmware / Edge Device Container -->
  <rect x="50" y="550" width="350" height="270" rx="20" fill="url(#firmwareGrad)" stroke="#0D9488" stroke-width="2" filter="url(#shadow)"/>
  <rect x="50" y="550" width="8" height="270" rx="4" fill="#10B981"/>
  <text x="74" y="578" class="cardTitle">Firmware / Edge Device</text>
  <text x="74" y="594" class="cardMeta">Owns local runtime, sensing, &amp; recovery.</text>

  <g filter="url(#shadow)">
    <!-- Sensing & RTOS Runtime -->
    <rect x="74" y="610" width="300" height="50" rx="12" fill="#0F172A" stroke="#115E59"/>
    <rect x="84" y="618" width="4" height="34" rx="2" fill="#2DD4BF"/>
    <text x="98" y="632" class="cardTitle" font-size="13px">Sensing &amp; RTOS Runtime</text>
    <text x="98" y="650" class="cardMeta">FreeRTOS sensing, signal buffering &amp; ML.</text>

    <!-- BLE / Device Protocol -->
    <rect x="74" y="674" width="300" height="50" rx="12" fill="#0F172A" stroke="#115E59"/>
    <rect x="84" y="682" width="4" height="34" rx="2" fill="#0EA5E9"/>
    <text x="98" y="696" class="cardTitle" font-size="13px">BLE / Device Protocol</text>
    <text x="98" y="714" class="cardMeta">NimBLE, binary framing, ACK/NACK.</text>

    <!-- Durability, Power, & OTA -->
    <rect x="74" y="738" width="300" height="62" rx="12" fill="#0F172A" stroke="#115E59"/>
    <rect x="84" y="746" width="4" height="46" rx="2" fill="#10B981"/>
    <text x="98" y="760" class="cardTitle" font-size="13px">Durability, Power, &amp; OTA</text>
    <text x="98" y="778" class="cardMeta">RTC/NVS/SPIFFS persistence,</text>
    <text x="98" y="792" class="cardMeta">deep sleep, dual-bank OTA.</text>
  </g>

  <!-- Physical Interaction (below firmware, shifted right) -->
  <g filter="url(#shadow)">
    <rect x="130" y="880" width="200" height="50" rx="12" fill="#0F172A" stroke="#475569"/>
    <rect x="140" y="890" width="4" height="30" rx="2" fill="#94A3B8"/>
    <text x="154" y="905" class="cardTitle" font-size="13px">Physical Interaction</text>
    <text x="154" y="921" class="cardMeta">User environment</text>
  </g>

  <!-- Arrow: Physical Interaction up to firmware -->
  <path d="M 230 880 L 230 820" stroke="#94A3B8" stroke-width="2" fill="none" marker-end="url(#arrowGeneric)"/>
  <rect x="207" y="846" width="46" height="16" rx="4" fill="#0B1220"/>
  <text x="230" y="858" text-anchor="middle" class="linkLabel" font-size="11px" fill="#94A3B8">sense</text>


  <!-- ========================================================= -->
  <!-- CENTER: BACKEND RUNTIME (WEB x=600, WORKER x=920)        -->
  <!-- ========================================================= -->
  <text x="600" y="180" class="groupTitle">Backend Runtime Services</text>

  <!-- Web Service (x=600, w=290) -->
  <g filter="url(#glowTeal)">
    <rect x="600" y="200" width="290" height="190" rx="16" fill="url(#webServiceGrad)" stroke="#0F766E" stroke-width="2"/>
    <rect x="600" y="200" width="8" height="190" rx="4" fill="url(#tealAccent)"/>

    <text x="624" y="234" class="cardTitle">Backend Web Service</text>
    <rect x="624" y="246" width="100" height="22" rx="6" fill="#042F2E" stroke="#10B981"/>
    <text x="674" y="261" text-anchor="middle" class="pillText">Synchronous</text>

    <circle cx="630" cy="285" r="4" fill="#2DD4BF"/>
    <text x="644" y="290" class="listItem">HTTP REST API &amp; Gateway</text>
    <circle cx="630" cy="315" r="4" fill="#2DD4BF"/>
    <text x="644" y="320" class="listItem">WebSocket Gateway (Socket.IO)</text>
    <circle cx="630" cy="345" r="4" fill="#2DD4BF"/>
    <text x="644" y="350" class="listItem">Auth &amp; Admission Control (Leases)</text>
    <circle cx="630" cy="375" r="4" fill="#2DD4BF"/>
    <text x="644" y="380" class="listItem">Transactional Outbox Commits</text>
  </g>

  <!-- Worker Service (x=920, w=290) -->
  <g filter="url(#glowOrange)">
    <rect x="920" y="200" width="290" height="190" rx="16" fill="url(#workerServiceGrad)" stroke="#B45309" stroke-width="2"/>
    <rect x="920" y="200" width="8" height="190" rx="4" fill="url(#orangeAccent)"/>

    <text x="944" y="234" class="cardTitle">Backend Worker Service</text>
    <rect x="944" y="246" width="105" height="22" rx="6" fill="#451A03" stroke="#F59E0B"/>
    <text x="997" y="261" text-anchor="middle" class="pillText">Asynchronous</text>

    <circle cx="950" cy="285" r="4" fill="#F59E0B"/>
    <text x="964" y="290" class="listItem">BullMQ Job Processors</text>
    <circle cx="950" cy="315" r="4" fill="#F59E0B"/>
    <text x="964" y="320" class="listItem">Outbox Event Fan-out &amp; Delivery</text>
    <circle cx="950" cy="345" r="4" fill="#F59E0B"/>
    <text x="964" y="350" class="listItem">Health Projection Coordinator</text>
    <circle cx="950" cy="375" r="4" fill="#F59E0B"/>
    <text x="964" y="380" class="listItem">Telemetry Compute &amp; Cleanup Reapers</text>
  </g>


  <!-- ========================================================= -->
  <!-- BOTTOM ROW: DATA PERSISTENCE                              -->
  <!-- ========================================================= -->
  <text x="600" y="705" class="groupTitle">Data Persistence &amp; Message Brokers</text>

  <!-- PostgreSQL (x=600, w=190) -->
  <g filter="url(#shadow)">
    <rect x="600" y="530" width="190" height="150" rx="12" fill="url(#postgresGrad)" stroke="#4338CA" stroke-width="2"/>
    <rect x="600" y="530" width="8" height="150" rx="4" fill="url(#purpleAccent)"/>
    <text x="624" y="560" class="cardTitle">PostgreSQL DB</text>
    <rect x="624" y="570" width="125" height="20" rx="4" fill="#312E81" stroke="#6366F1"/>
    <text x="687" y="584" text-anchor="middle" class="pillText" font-size="11px">Canonical Source</text>

    <text x="624" y="615" class="cardMeta">Core Entities &amp; Sync State</text>
    <text x="624" y="635" class="cardMeta">Raw Health Samples</text>
    <text x="624" y="655" class="cardMeta">Projection Read Models</text>
    <text x="624" y="675" class="cardMeta">Outbox Events</text>
  </g>

  <!-- Redis Cache (x=810, w=190) -->
  <g filter="url(#shadow)">
    <rect x="810" y="530" width="190" height="150" rx="12" fill="url(#redisGrad)" stroke="#B91C1C" stroke-width="2"/>
    <rect x="810" y="530" width="8" height="150" rx="4" fill="url(#redAccent)"/>
    <text x="834" y="560" class="cardTitle">Redis (Cache)</text>
    <rect x="834" y="570" width="100" height="20" rx="4" fill="#450A0A" stroke="#EF4444"/>
    <text x="884" y="584" text-anchor="middle" class="pillText" font-size="11px">Volatile TTL</text>

    <text x="834" y="615" class="cardMeta">API Response Caches</text>
    <text x="834" y="635" class="cardMeta">Distributed Adv. Locks</text>
    <text x="834" y="655" class="cardMeta">Rate Limit Counters</text>
  </g>

  <!-- Redis BullMQ (x=1020, w=190) -->
  <g filter="url(#shadow)">
    <rect x="1020" y="530" width="190" height="150" rx="12" fill="url(#redisGrad)" stroke="#B91C1C" stroke-width="2"/>
    <rect x="1020" y="530" width="8" height="150" rx="4" fill="url(#redAccent)"/>
    <text x="1044" y="560" class="cardTitle">Redis (Messaging)</text>
    <rect x="1044" y="570" width="90" height="20" rx="4" fill="#450A0A" stroke="#EF4444"/>
    <text x="1089" y="584" text-anchor="middle" class="pillText" font-size="11px">NoEviction</text>

    <text x="1044" y="615" class="cardMeta">BullMQ Job Queues</text>
    <text x="1044" y="635" class="cardMeta">Job State &amp; Retries</text>
    <text x="1044" y="655" class="cardMeta">Socket.IO Pub/Sub</text>
  </g>


  <!-- ========================================================= -->
  <!-- COLUMN 4: EXTERNAL INFRASTRUCTURE (x=1340, w=220)         -->
  <!-- ========================================================= -->
  <text x="1340" y="180" class="groupTitle">Cloud Infra &amp; 3rd Party</text>

  <g filter="url(#shadow)">
    <rect x="1340" y="200" width="220" height="430" rx="16" fill="url(#cloudGrad)" stroke="#334155" stroke-width="2"/>
    <rect x="1340" y="200" width="8" height="430" rx="4" fill="url(#slateAccent)"/>

    <text x="1364" y="234" class="cardTitle">AWS &amp; External APIs</text>

    <rect x="1364" y="260" width="190" height="40" rx="6" fill="#1E293B" stroke="#475569"/>
    <text x="1380" y="285" class="listItem">AWS Cognito (Auth/IAM)</text>

    <rect x="1364" y="315" width="190" height="40" rx="6" fill="#1E293B" stroke="#475569"/>
    <text x="1380" y="340" class="listItem">Google OAuth (Federation)</text>

    <rect x="1364" y="370" width="190" height="40" rx="6" fill="#1E293B" stroke="#475569"/>
    <text x="1380" y="395" class="listItem">AWS Secrets Manager</text>

    <rect x="1364" y="425" width="190" height="40" rx="6" fill="#1E293B" stroke="#475569"/>
    <text x="1380" y="450" class="listItem">Anthropic AI (LLM Engine)</text>

    <rect x="1364" y="480" width="190" height="40" rx="6" fill="#1E293B" stroke="#475569"/>
    <text x="1380" y="505" class="listItem">AWS S3 (Blob Storage)</text>

    <rect x="1364" y="535" width="190" height="40" rx="6" fill="#1E293B" stroke="#475569"/>
    <text x="1380" y="560" class="listItem">CloudWatch &amp; OTEL</text>
  </g>


  <!-- ========================================================= -->
  <!-- SHARED CONTRACTS & PLATFORM GUARANTEES BAND               -->
  <!-- ========================================================= -->
  <g filter="url(#shadow)">
    <rect x="50" y="960" width="1510" height="140" rx="16" fill="url(#sharedGrad)" stroke="#475569" stroke-width="2"/>
  </g>
  <text x="74" y="990" class="cardTitle">Shared Contracts &amp; Platform Guarantees</text>
  <text x="74" y="1008" class="cardMeta">A single source of truth for cross-system semantics, ensuring consistency across embedded, mobile, and cloud environments.</text>

  <!-- Row 1: Contract-level guarantees (5 pills, each 282px, 12px gaps) -->
  <rect x="74" y="1026" width="282" height="24" rx="12" fill="#1E293B" stroke="#475569"/>
  <text x="215" y="1043" text-anchor="middle" class="listItem">Device Binary Protocol &amp; CRCs</text>

  <rect x="368" y="1026" width="282" height="24" rx="12" fill="#1E293B" stroke="#475569"/>
  <text x="509" y="1043" text-anchor="middle" class="listItem">Sync Schemas &amp; RELATION_GRAPH</text>

  <rect x="662" y="1026" width="282" height="24" rx="12" fill="#1E293B" stroke="#475569"/>
  <text x="803" y="1043" text-anchor="middle" class="listItem">Health Metric Canon &amp; Projection DTOs</text>

  <rect x="956" y="1026" width="282" height="24" rx="12" fill="#1E293B" stroke="#475569"/>
  <text x="1097" y="1043" text-anchor="middle" class="listItem">Idempotency, Dedup, &amp; Conflict Policies</text>

  <rect x="1250" y="1026" width="282" height="24" rx="12" fill="#1E293B" stroke="#475569"/>
  <text x="1391" y="1043" text-anchor="middle" class="listItem">Tracing &amp; Observability Context</text>

  <!-- Row 2: Architectural enforcement policies (4 pills, each 356px, 12px gaps) -->
  <rect x="74" y="1060" width="356" height="24" rx="12" fill="#1E293B" stroke="#475569"/>
  <text x="252" y="1077" text-anchor="middle" class="listItem">Validation &amp; Integrity (Zod, Payload Hashes)</text>

  <rect x="442" y="1060" width="356" height="24" rx="12" fill="#1E293B" stroke="#475569"/>
  <text x="620" y="1077" text-anchor="middle" class="listItem">Concurrency Control (Optimistic/Distributed Locks)</text>

  <rect x="810" y="1060" width="356" height="24" rx="12" fill="#1E293B" stroke="#475569"/>
  <text x="988" y="1077" text-anchor="middle" class="listItem">Read Consistency (Watermark Freshness)</text>

  <rect x="1178" y="1060" width="356" height="24" rx="12" fill="#1E293B" stroke="#475569"/>
  <text x="1356" y="1077" text-anchor="middle" class="listItem">Observability (Correlation IDs, Structured Logging)</text>


  <!-- ========================================================= -->
  <!-- ARROW ROUTING                                             -->
  <!-- ========================================================= -->

  <!-- HealthKit -> Mobile App -->
  <path d="M 225 420 L 225 390" stroke="#94A3B8" stroke-width="3" fill="none" marker-end="url(#arrowGeneric)"/>

  <!-- Mobile App -> Web Service (HTTP) -->
  <path d="M 400 240 L 600 240" stroke="#38BDF8" stroke-width="3" fill="none" marker-end="url(#arrowData)"/>
  <rect x="469" y="228" width="62" height="20" rx="4" fill="#0F172A" stroke="#1E293B"/>
  <text x="500" y="242" text-anchor="middle" class="linkLabel" fill="#38BDF8">REST API</text>

  <!-- Mobile App -> Web Service (WebSocket) -->
  <path d="M 400 340 L 600 340" stroke="#A78BFA" stroke-width="3" stroke-dasharray="4,4" fill="none" marker-end="url(#arrowWS)"/>
  <rect x="467" y="328" width="66" height="20" rx="4" fill="#0F172A" stroke="#1E293B"/>
  <text x="500" y="342" text-anchor="middle" class="linkLabel" fill="#A78BFA">Live Events</text>

  <!-- BLE Device -> Mobile App (Bluetooth) -->
  <path d="M 400 699 L 430 699 L 430 295 L 400 295" stroke="#10B981" stroke-width="3" fill="none" marker-end="url(#arrowBLE)"/>
  <rect x="412" y="488" width="36" height="20" rx="4" fill="#0F172A" stroke="#1E293B"/>
  <text x="430" y="502" text-anchor="middle" class="linkLabel" fill="#10B981">BLE</text>

  <!-- === Arrow Paths (drawn first so labels render on top) === -->

  <!-- Web Service -> PostgreSQL -->
  <path d="M 660 390 L 660 530" stroke="#38BDF8" stroke-width="3" fill="none" marker-end="url(#arrowData)"/>
  <!-- Web Service -> Redis Cache -->
  <path d="M 760 390 L 760 430 L 870 430 L 870 530" stroke="#38BDF8" stroke-width="3" fill="none" marker-end="url(#arrowData)"/>
  <!-- Web Service -> Redis BullMQ -->
  <path d="M 840 390 L 840 410 L 1100 410 L 1100 530" stroke="#F59E0B" stroke-width="3" stroke-dasharray="6,4" fill="none" marker-end="url(#arrowAsync)"/>
  <!-- Worker Service -> Redis BullMQ -->
  <path d="M 1040 390 L 1040 530" stroke="#F59E0B" stroke-width="3" stroke-dasharray="6,4" fill="none" marker-end="url(#arrowAsync)"/>
  <!-- Worker Service -> PostgreSQL -->
  <path d="M 970 390 L 970 460 L 720 460 L 720 530" stroke="#38BDF8" stroke-width="3" fill="none" marker-end="url(#arrowData)"/>
  <!-- Worker Service -> Redis Cache -->
  <path d="M 940 390 L 940 450 L 900 450 L 900 530" stroke="#38BDF8" stroke-width="3" fill="none" marker-end="url(#arrowData)"/>
  <!-- Web Service -> External Services (Auth, Secrets) -->
  <path d="M 890 200 L 890 185 L 1332 185 L 1332 280 L 1340 280" stroke="#38BDF8" stroke-width="3" fill="none" marker-end="url(#arrowData)"/>
  <!-- Worker Service -> External Services (AI, Storage, OTEL) -->
  <path d="M 1210 320 L 1340 320" stroke="#38BDF8" stroke-width="3" fill="none" marker-end="url(#arrowData)"/>

  <!-- === Arrow Labels (rendered on top of all paths for readability) === -->

  <!-- Tx Writes & Outbox -->
  <rect x="604" y="424" width="112" height="22" rx="4" fill="#0F172A" stroke="#1E293B"/>
  <text x="660" y="440" text-anchor="middle" class="linkLabel" fill="#38BDF8">Tx Writes &amp; Outbox</text>

  <!-- Check/Set -->
  <rect x="762" y="416" width="76" height="22" rx="4" fill="#0F172A" stroke="#1E293B"/>
  <text x="800" y="432" text-anchor="middle" class="linkLabel" fill="#38BDF8">Check/Set</text>

  <!-- Enqueue Jobs & WS -->
  <rect x="899" y="396" width="142" height="22" rx="4" fill="#0F172A" stroke="#1E293B"/>
  <text x="970" y="412" text-anchor="middle" class="linkLabel" fill="#F59E0B">Enqueue Jobs &amp; WS</text>

  <!-- Poll/Dequeue Jobs -->
  <rect x="982" y="424" width="116" height="22" rx="4" fill="#0F172A" stroke="#1E293B"/>
  <text x="1040" y="440" text-anchor="middle" class="linkLabel" fill="#F59E0B">Poll/Dequeue Jobs</text>

  <!-- Read Raw, Write Projections -->
  <rect x="765" y="446" width="160" height="22" rx="4" fill="#0F172A" stroke="#1E293B"/>
  <text x="845" y="462" text-anchor="middle" class="linkLabel" fill="#38BDF8">Read Raw, Write Projections</text>

  <!-- Auth & Configuration -->
  <rect x="1051" y="176" width="128" height="22" rx="4" fill="#0F172A" stroke="#1E293B"/>
  <text x="1115" y="192" text-anchor="middle" class="linkLabel" fill="#38BDF8">Auth &amp; Configuration</text>

  <!-- AI & S3 -->
  <rect x="1246" y="306" width="58" height="22" rx="4" fill="#0F172A" stroke="#1E293B"/>
  <text x="1275" y="322" text-anchor="middle" class="linkLabel" fill="#38BDF8">AI &amp; S3</text>

</svg>